<svg width="212" height="382" viewBox="0 0 212 382" fill="none" xmlns="http://www.w3.org/2000/svg">
<path d="M177.544 190.881L36.1597 190.881L2.99996 6.17504e-05L211.433 6.17504e-05L177.544 190.881Z" fill="url(#paint0_linear_1848_520)"/>
<path d="M177.544 190.881L36.1597 190.881L2.99996 81.1792L211.433 81.1792L177.544 190.881Z" fill="url(#paint1_linear_1848_520)"/>
<path d="M177.544 190.881L36.1597 190.881L2.99996 138.224L211.433 138.224L177.544 190.881Z" fill="url(#paint2_linear_1848_520)"/>
<path d="M33.8885 191H175.273L208.433 381.881H0L33.8885 191Z" fill="url(#paint3_linear_1848_520)"/>
<path d="M33.8885 191H175.273L208.433 300.702H0L33.8885 191Z" fill="url(#paint4_linear_1848_520)"/>
<path d="M33.8885 191H175.273L208.433 243.657H0L33.8885 191Z" fill="url(#paint5_linear_1848_520)"/>
<defs>
<linearGradient id="paint0_linear_1848_520" x1="200.967" y1="134.176" x2="-89.746" y2="-84.6289" gradientUnits="userSpaceOnUse">
<stop stop-color="#3A6960"/>
<stop offset="1" stop-color="#F3F3F3"/>
</linearGradient>
<linearGradient id="paint1_linear_1848_520" x1="200.967" y1="158.291" x2="33.2382" y2="-61.3676" gradientUnits="userSpaceOnUse">
<stop stop-color="#3A6960"/>
<stop offset="1" stop-color="#F3F3F3"/>
</linearGradient>
<linearGradient id="paint2_linear_1848_520" x1="200.967" y1="175.238" x2="147.035" y2="28.0923" gradientUnits="userSpaceOnUse">
<stop stop-color="#3A6960"/>
<stop offset="1" stop-color="#F3F3F3"/>
</linearGradient>
<linearGradient id="paint3_linear_1848_520" x1="186.178" y1="347.539" x2="-12.232" y2="224.795" gradientUnits="userSpaceOnUse">
<stop offset="0.00395146" stop-color="#3A6960"/>
<stop offset="1" stop-color="#F3F3F3"/>
</linearGradient>
<linearGradient id="paint4_linear_1848_520" x1="186.178" y1="280.965" x2="59.0903" y2="144.164" gradientUnits="userSpaceOnUse">
<stop offset="0.00395146" stop-color="#3A6960"/>
<stop offset="1" stop-color="#F3F3F3"/>
</linearGradient>
<linearGradient id="paint5_linear_1848_520" x1="186.178" y1="234.183" x2="140.674" y2="132.139" gradientUnits="userSpaceOnUse">
<stop offset="0.00395146" stop-color="#3A6960"/>
<stop offset="1" stop-color="#F3F3F3"/>
</linearGradient>
</defs>
</svg>
