<svg width="263" height="256" viewBox="0 0 263 256" fill="none" xmlns="http://www.w3.org/2000/svg">
<mask id="mask0_1810_505" style="mask-type:alpha" maskUnits="userSpaceOnUse" x="107" y="0" width="32" height="256">
<rect x="-1" y="-1" width="254" height="30" transform="matrix(0 -1 -1 0 137 254)" fill="#C4C4C4" stroke="#FCFCF6" stroke-width="2"/>
</mask>
<g mask="url(#mask0_1810_505)">
<path d="M139 1C135.154 1 131.203 4.14232 127.405 10.5677C123.647 16.9261 120.228 26.1935 117.343 37.7329C111.577 60.7962 108 92.7109 108 128C108 163.289 111.577 195.204 117.343 218.267C120.228 229.806 123.647 239.074 127.405 245.432C131.203 251.858 135.154 255 139 255C142.846 255 146.797 251.858 150.595 245.432C154.353 239.074 157.772 229.806 160.657 218.267C166.423 195.204 170 163.289 170 128C170 92.7109 166.423 60.7962 160.657 37.7329C157.772 26.1935 154.353 16.9261 150.595 10.5677C146.797 4.14232 142.846 1 139 1Z" stroke="#FCFCF6" stroke-width="2"/>
</g>
<mask id="mask1_1810_505" style="mask-type:alpha" maskUnits="userSpaceOnUse" x="7" y="115" width="256" height="32">
<rect x="1" y="-1" width="254" height="30" transform="matrix(1 0 0 -1 7 145)" fill="#C4C4C4" stroke="#FCFCF6" stroke-width="2"/>
</mask>
<g mask="url(#mask1_1810_505)">
<path d="M262 147C262 143.154 258.858 139.203 252.432 135.405C246.074 131.647 236.806 128.228 225.267 125.343C202.204 119.577 170.289 116 135 116C99.7109 116 67.7962 119.577 44.7329 125.343C33.1935 128.228 23.9261 131.647 17.5677 135.405C11.1423 139.203 8 143.154 8 147C8 150.846 11.1423 154.797 17.5677 158.595C23.9261 162.353 33.1935 165.772 44.7329 168.657C67.7962 174.423 99.7109 178 135 178C170.289 178 202.204 174.423 225.267 168.657C236.806 165.772 246.074 162.353 252.432 158.595C258.858 154.797 262 150.846 262 147Z" stroke="#FCFCF6" stroke-width="2"/>
</g>
<circle cx="135" cy="144" r="64" fill="url(#paint0_linear_1810_505)"/>
<mask id="mask2_1810_505" style="mask-type:alpha" maskUnits="userSpaceOnUse" x="7" y="147" width="256" height="32">
<rect x="8" y="148" width="254" height="30" fill="#C4C4C4" stroke="#FCFCF6" stroke-width="2"/>
</mask>
<g mask="url(#mask2_1810_505)">
<path d="M262 147C262 150.846 258.858 154.797 252.432 158.595C246.074 162.353 236.806 165.772 225.267 168.657C202.204 174.423 170.289 178 135 178C99.7109 178 67.7962 174.423 44.7329 168.657C33.1935 165.772 23.9261 162.353 17.5677 158.595C11.1423 154.797 8 150.846 8 147C8 143.154 11.1423 139.203 17.5677 135.405C23.9261 131.647 33.1935 128.228 44.7329 125.343C67.7962 119.577 99.7109 116 135 116C170.289 116 202.204 119.577 225.267 125.343C236.806 128.228 246.074 131.647 252.432 135.405C258.858 139.203 262 143.154 262 147Z" stroke="#FCFCF6" stroke-width="2"/>
</g>
<mask id="mask3_1810_505" style="mask-type:alpha" maskUnits="userSpaceOnUse" x="139" y="0" width="32" height="256">
<rect x="140" y="255" width="254" height="30" transform="rotate(-90 140 255)" fill="#C4C4C4" stroke="#FCFCF6" stroke-width="2"/>
</mask>
<g mask="url(#mask3_1810_505)">
<path d="M139 1C142.846 1 146.797 4.14232 150.595 10.5677C154.353 16.9261 157.772 26.1935 160.657 37.7329C166.423 60.7962 170 92.7109 170 128C170 163.289 166.423 195.204 160.657 218.267C157.772 229.806 154.353 239.074 150.595 245.432C146.797 251.858 142.846 255 139 255C135.154 255 131.203 251.858 127.405 245.432C123.647 239.074 120.228 229.806 117.343 218.267C111.577 195.204 108 163.289 108 128C108 92.7109 111.577 60.7962 117.343 37.7329C120.228 26.1935 123.647 16.9261 127.405 10.5677C131.203 4.14232 135.154 1 139 1Z" stroke="#FCFCF6" stroke-width="2"/>
</g>
<circle cx="165" cy="56" r="8" fill="url(#paint1_linear_1810_505)"/>
<circle cx="8" cy="147" r="8" fill="url(#paint2_linear_1810_505)"/>
<defs>
<linearGradient id="paint0_linear_1810_505" x1="77.4268" y1="118.025" x2="267.017" y2="248.703" gradientUnits="userSpaceOnUse">
<stop stop-color="#FAF0F5"/>
<stop offset="0.558852" stop-color="#0F6DBE"/>
</linearGradient>
<linearGradient id="paint1_linear_1810_505" x1="157.803" y1="52.7531" x2="181.502" y2="69.0879" gradientUnits="userSpaceOnUse">
<stop stop-color="#FAF0F5"/>
<stop offset="1" stop-color="#1D64CC"/>
</linearGradient>
<linearGradient id="paint2_linear_1810_505" x1="0.803347" y1="143.753" x2="24.5021" y2="160.088" gradientUnits="userSpaceOnUse">
<stop stop-color="#FAF0F5"/>
<stop offset="1" stop-color="#1D64CC"/>
</linearGradient>
</defs>
</svg>
