<svg width="32" height="256" viewBox="0 0 32 256" fill="none" xmlns="http://www.w3.org/2000/svg">
<mask id="mask0_1810_496" style="mask-type:alpha" maskUnits="userSpaceOnUse" x="0" y="0" width="32" height="256">
<rect x="1" y="255" width="254" height="30" transform="rotate(-90 1 255)" fill="#C4C4C4" stroke="#FCFCF6" stroke-width="2"/>
</mask>
<g mask="url(#mask0_1810_496)">
<path d="M0 1C3.84645 1 7.79715 4.14232 11.595 10.5677C15.3532 16.9261 18.7724 26.1935 21.6573 37.7329C27.4231 60.7962 31 92.7109 31 128C31 163.289 27.4231 195.204 21.6573 218.267C18.7724 229.806 15.3532 239.074 11.595 245.432C7.79715 251.858 3.84645 255 0 255C-3.84645 255 -7.79715 251.858 -11.595 245.432C-15.3532 239.074 -18.7724 229.806 -21.6573 218.267C-27.4231 195.204 -31 163.289 -31 128C-31 92.7109 -27.4231 60.7962 -21.6573 37.7329C-18.7724 26.1935 -15.3532 16.9261 -11.595 10.5677C-7.79715 4.14232 -3.84645 1 0 1Z" stroke="#FCFCF6" stroke-width="2"/>
</g>
</svg>
