<svg width="337" height="337" viewBox="0 0 337 337" fill="none" xmlns="http://www.w3.org/2000/svg">
<rect width="193.934" height="193.934" transform="matrix(1 0 -0.707107 0.707107 142.132 0)" fill="url(#paint0_linear_1845_518)"/>
<rect width="193.934" height="193.934" transform="matrix(1 0 -0.707107 0.707107 142.132 39)" fill="url(#paint1_linear_1845_518)"/>
<rect width="193.934" height="193.934" transform="matrix(1 0 -0.707107 0.707107 142.132 97)" fill="url(#paint2_linear_1845_518)"/>
<rect width="193.934" height="193.934" transform="matrix(1 0 -0.707107 0.707107 137.132 151)" fill="url(#paint3_linear_1845_518)"/>
<rect width="193.934" height="193.934" transform="matrix(1 0 -0.707107 0.707107 142.132 199)" fill="url(#paint4_linear_1845_518)"/>
<defs>
<linearGradient id="paint0_linear_1845_518" x1="9.73727" y1="57.6122" x2="296.987" y2="255.603" gradientUnits="userSpaceOnUse">
<stop stop-color="#F3F3F3"/>
<stop offset="1" stop-color="#FF0000"/>
</linearGradient>
<linearGradient id="paint1_linear_1845_518" x1="9.73727" y1="57.6122" x2="296.987" y2="255.603" gradientUnits="userSpaceOnUse">
<stop stop-color="#F3F3F3"/>
<stop offset="1" stop-color="#FF0000"/>
</linearGradient>
<linearGradient id="paint2_linear_1845_518" x1="9.73727" y1="57.6122" x2="296.987" y2="255.603" gradientUnits="userSpaceOnUse">
<stop stop-color="#F3F3F3"/>
<stop offset="1" stop-color="#FF0000"/>
</linearGradient>
<linearGradient id="paint3_linear_1845_518" x1="9.73727" y1="57.6122" x2="296.987" y2="255.603" gradientUnits="userSpaceOnUse">
<stop stop-color="#F3F3F3"/>
<stop offset="1" stop-color="#FF0000"/>
</linearGradient>
<linearGradient id="paint4_linear_1845_518" x1="9.73727" y1="57.6122" x2="296.987" y2="255.603" gradientUnits="userSpaceOnUse">
<stop stop-color="#F3F3F3"/>
<stop offset="1" stop-color="#FF0000"/>
</linearGradient>
</defs>
</svg>
