<svg width="16" height="16" viewBox="0 0 16 16" fill="none" xmlns="http://www.w3.org/2000/svg">
<path d="M2.66675 2.66665C2.66675 1.93027 3.2637 1.33331 4.00008 1.33331H9.33341C9.51023 1.33331 9.67979 1.40355 9.80482 1.52858L13.1382 4.86191C13.2632 4.98693 13.3334 5.1565 13.3334 5.33331V13.3333C13.3334 14.0697 12.7365 14.6666 12.0001 14.6666H4.00008C3.2637 14.6666 2.66675 14.0697 2.66675 13.3333V2.66665ZM11.7239 5.33331L9.33341 2.94279V5.33331H11.7239ZM8.00008 2.66665L4.00008 2.66665V13.3333H12.0001V6.66665H8.66675C8.29856 6.66665 8.00008 6.36817 8.00008 5.99998V2.66665ZM5.33341 8.66665C5.33341 8.29846 5.63189 7.99998 6.00008 7.99998H10.0001C10.3683 7.99998 10.6667 8.29846 10.6667 8.66665C10.6667 9.03484 10.3683 9.33331 10.0001 9.33331H6.00008C5.63189 9.33331 5.33341 9.03484 5.33341 8.66665ZM5.33341 11.3333C5.33341 10.9651 5.63189 10.6666 6.00008 10.6666H10.0001C10.3683 10.6666 10.6667 10.9651 10.6667 11.3333C10.6667 11.7015 10.3683 12 10.0001 12H6.00008C5.63189 12 5.33341 11.7015 5.33341 11.3333Z" fill="#75787D"/>
</svg>
