<svg width="24" height="24" viewBox="0 0 21 21" fill="none" xmlns="http://www.w3.org/2000/svg">
<path d="M10.5 1.3125C15.5736 1.3125 19.6875 5.53301 19.6875 10.7338C19.6875 14.8969 17.0543 18.4242 13.4039 19.6711C13.3527 19.6822 13.3004 19.6877 13.248 19.6875C12.9076 19.6875 12.7764 19.4373 12.7764 19.2199C12.7764 18.9943 12.7846 18.4037 12.7887 17.6162C13.0926 17.6875 13.4035 17.7246 13.7156 17.727C15.4834 17.727 15.8854 16.3529 15.8854 16.3529C16.3037 15.266 16.9066 14.9748 16.9066 14.9748C17.7064 14.4129 16.9107 14.3965 16.8492 14.3965H16.8451C15.9223 14.4785 15.4383 15.3727 15.4383 15.3727C14.9789 16.1766 14.3637 16.4021 13.8141 16.4021C13.4506 16.3949 13.0929 16.311 12.7641 16.1561C12.682 15.549 12.4441 15.1348 12.1816 14.8969C14.2201 14.659 16.3652 13.851 16.3652 10.2416C16.3652 9.21211 16.0084 8.37129 15.4219 7.71504C15.5162 7.47715 15.832 6.51738 15.3316 5.22129C15.2645 5.20523 15.1955 5.19833 15.1266 5.20078C14.7943 5.20078 14.0437 5.32793 12.8051 6.18926C11.3 5.76815 9.70821 5.76815 8.20312 6.18926C6.96445 5.32793 6.21387 5.20078 5.88164 5.20078C5.81267 5.19833 5.74368 5.20523 5.67656 5.22129C5.17617 6.51738 5.49199 7.47715 5.58633 7.71504C4.99981 8.37539 4.64297 9.21621 4.64297 10.2416C4.64297 13.8592 6.79219 14.6549 8.83887 14.8887C8.51074 15.1799 8.21543 15.7541 8.21543 16.6318C8.21543 17.891 8.22773 18.9082 8.22773 19.2158C8.22773 19.4373 8.10059 19.6875 7.76016 19.6875C7.70505 19.6877 7.65006 19.6822 7.59609 19.6711C3.9416 18.4242 1.3125 14.8928 1.3125 10.7338C1.3125 5.53301 5.42637 1.3125 10.5 1.3125Z" fill="#75787D"/>
</svg>
