<svg width="14" height="14" viewBox="0 0 14 14" fill="none" xmlns="http://www.w3.org/2000/svg">
<path d="M9.44996 3.50001C9.44996 3.17784 9.71113 2.91667 10.0333 2.91667C10.4047 2.91667 10.7697 2.99131 11.1249 3.13339C11.5115 3.28803 11.8091 3.51751 12.0791 3.78753C12.3491 4.05754 12.5786 4.35511 12.7332 4.74169C12.8753 5.09691 12.95 5.46191 12.95 5.83334C12.95 6.20477 12.8753 6.56976 12.7332 6.92498C12.5805 7.30672 12.3549 7.60166 12.0892 7.86898L11.5149 8.50073C11.5087 8.50758 11.5023 8.51428 11.4958 8.52082L9.6291 10.3875C9.35909 10.6575 9.06152 10.887 8.67494 11.0416C8.31972 11.1837 7.95472 11.2583 7.58329 11.2583C7.21186 11.2583 6.84687 11.1837 6.49165 11.0416C6.10507 10.887 5.8075 10.6575 5.53748 10.3875C5.26746 10.1175 5.03798 9.8199 4.88335 9.43332C4.73853 9.07126 4.66663 8.70593 4.66663 8.28334C4.66663 7.91191 4.74126 7.54691 4.88335 7.19169C5.03798 6.80511 5.26746 6.50755 5.53748 6.23753L6.17915 5.59586C6.40695 5.36805 6.7763 5.36805 7.0041 5.59586C7.23191 5.82367 7.23191 6.19301 7.0041 6.42082L6.36244 7.06248C6.16579 7.25913 6.04527 7.42823 5.96657 7.62498C5.87533 7.8531 5.83329 8.07144 5.83329 8.28334C5.83329 8.56075 5.87806 8.77875 5.96657 9.00003C6.04527 9.19678 6.16579 9.36588 6.36244 9.56253C6.55909 9.75918 6.72819 9.87969 6.92494 9.9584C7.15305 10.0496 7.37139 10.0917 7.58329 10.0917C7.7952 10.0917 8.01354 10.0496 8.24165 9.9584C8.4384 9.87969 8.6075 9.75918 8.80415 9.56253L10.661 7.70568L11.235 7.07428C11.2412 7.06743 11.2476 7.06074 11.2541 7.05419C11.4508 6.85755 11.5713 6.68845 11.65 6.49169C11.7413 6.26358 11.7833 6.04524 11.7833 5.83334C11.7833 5.62144 11.7413 5.4031 11.65 5.17498C11.5713 4.97823 11.4508 4.80913 11.2541 4.61248C11.0575 4.41584 10.8884 4.29532 10.6916 4.21662C10.4635 4.12537 10.2452 4.08334 10.0333 4.08334C9.71113 4.08334 9.44996 3.82217 9.44996 3.50001ZM6.59163 4.37501C6.37972 4.37501 6.16138 4.41704 5.93327 4.50828C5.73652 4.58698 5.56742 4.7075 5.37077 4.90415L3.45559 6.81934L2.88159 7.45073C2.87537 7.45758 2.86898 7.46428 2.86244 7.47082C2.66579 7.66747 2.54527 7.83657 2.46657 8.03332C2.37533 8.26143 2.33329 8.47977 2.33329 8.69167C2.33329 8.90358 2.37533 9.12191 2.46657 9.35003C2.54527 9.54678 2.66579 9.71588 2.86244 9.91253C3.05909 10.1092 3.22819 10.2297 3.42494 10.3084C3.65305 10.3996 3.87139 10.4417 4.08329 10.4417C4.40546 10.4417 4.66663 10.7028 4.66663 11.025C4.66663 11.3472 4.40546 11.6083 4.08329 11.6083C3.71186 11.6083 3.34687 11.5337 2.99165 11.3916C2.60506 11.237 2.3075 11.0075 2.03748 10.7375C1.76746 10.4675 1.53798 10.1699 1.38335 9.78332C1.24126 9.4281 1.16663 9.0631 1.16663 8.69167C1.16663 8.32024 1.24126 7.95525 1.38335 7.60003C1.53604 7.21829 1.76172 6.92336 2.02734 6.65603L2.60166 6.02428C2.60789 6.01743 2.61427 6.01074 2.62081 6.00419L4.54581 4.07919C4.81583 3.80917 5.1134 3.57969 5.49998 3.42506C5.8552 3.28297 6.2202 3.20834 6.59163 3.20834C6.96306 3.20834 7.32805 3.28297 7.68327 3.42506C8.06985 3.57969 8.36742 3.80917 8.63744 4.07919C8.90746 4.34921 9.13694 4.64678 9.29157 5.03336C9.43366 5.38858 9.50829 5.75358 9.50829 6.12501C9.50829 6.49644 9.43366 6.86143 9.29157 7.21665C9.13871 7.5988 8.9127 7.89397 8.6467 8.16153L8.0133 8.85251C7.7956 9.09 7.42661 9.10604 7.18912 8.88835C6.95163 8.67065 6.93559 8.30165 7.15329 8.06417L7.79495 7.36417C7.80066 7.35794 7.80651 7.35183 7.81248 7.34586C8.00913 7.14921 8.12965 6.98011 8.20835 6.78336C8.29959 6.55525 8.34163 6.33691 8.34163 6.12501C8.34163 5.9131 8.29959 5.69476 8.20835 5.46665C8.12965 5.2699 8.00913 5.1008 7.81248 4.90415C7.61583 4.7075 7.44673 4.58698 7.24998 4.50828C7.02187 4.41704 6.80353 4.37501 6.59163 4.37501Z" fill="#75787D"/>
</svg>
