<svg width="16" height="16" viewBox="0 0 16 16" fill="none" xmlns="http://www.w3.org/2000/svg">
<path d="M8 2.66665C6.52724 2.66665 5.33333 3.86055 5.33333 5.33331C5.33333 6.80607 6.52724 7.99998 8 7.99998C9.47276 7.99998 10.6667 6.80607 10.6667 5.33331C10.6667 3.86055 9.47276 2.66665 8 2.66665ZM4 5.33331C4 3.12417 5.79086 1.33331 8 1.33331C10.2091 1.33331 12 3.12417 12 5.33331C12 7.54245 10.2091 9.33331 8 9.33331C5.79086 9.33331 4 7.54245 4 5.33331ZM5.33333 12C4.22876 12 3.33333 12.8954 3.33333 14C3.33333 14.3682 3.03486 14.6666 2.66667 14.6666C2.29848 14.6666 2 14.3682 2 14C2 12.159 3.49239 10.6666 5.33333 10.6666H10.6667C12.5076 10.6666 14 12.159 14 14C14 14.3682 13.7015 14.6666 13.3333 14.6666C12.9651 14.6666 12.6667 14.3682 12.6667 14C12.6667 12.8954 11.7712 12 10.6667 12H5.33333Z" fill="#75787D"/>
</svg>
