<?xml version="1.0" standalone="no"?>
<!DOCTYPE svg PUBLIC "-//W3C//DTD SVG 20010904//EN"
 "http://www.w3.org/TR/2001/REC-SVG-20010904/DTD/svg10.dtd">
<svg version="1.0" xmlns="http://www.w3.org/2000/svg"
 width="700.000000pt" height="700.000000pt" viewBox="0 0 700.000000 700.000000"
 preserveAspectRatio="xMidYMid meet">
<metadata>
Created by potrace 1.14, written by Peter Selinger 2001-2017
</metadata>
<g transform="translate(0.000000,700.000000) scale(0.100000,-0.100000)"
fill="#000000" stroke="none">
<path d="M3245 6974 c-294 -30 -481 -64 -697 -125 -1104 -312 -1995 -1167
-2355 -2259 -185 -561 -223 -1180 -107 -1771 201 -1036 891 -1943 1842 -2425
351 -178 717 -291 1142 -350 177 -25 671 -26 854 -1 935 127 1724 570 2303
1294 396 496 641 1078 730 1739 24 182 24 666 0 848 -107 792 -441 1478 -987
2027 -554 557 -1233 893 -2031 1004 -109 16 -598 29 -694 19z m460 -204 c971
-66 1834 -532 2416 -1306 720 -956 857 -2225 360 -3324 -223 -492 -575 -928
-1017 -1261 -957 -720 -2233 -857 -3328 -358 -689 314 -1271 887 -1596 1572
-211 445 -312 899 -313 1402 0 316 27 539 103 832 239 923 873 1697 1735 2118
514 250 1079 362 1640 325z"/>
<path d="M1700 5378 c-78 -40 -114 -121 -90 -201 9 -31 30 -58 77 -102 35 -33
216 -214 400 -403 l336 -343 -381 -382 c-209 -210 -386 -395 -391 -410 -6 -16
-11 -50 -11 -76 0 -58 39 -123 86 -146 40 -19 104 -19 147 -1 19 7 189 171
410 396 208 210 379 380 380 378 1 -2 139 -142 306 -310 l304 -306 -795 -798
c-438 -440 -803 -814 -813 -833 -22 -44 -17 -131 12 -169 51 -69 144 -93 216
-55 18 9 390 376 827 816 l795 799 785 -793 c432 -436 799 -801 815 -811 38
-23 115 -24 162 -2 74 36 114 139 82 216 -8 21 -313 335 -807 832 l-794 799
805 806 c443 443 812 820 821 838 9 18 16 54 16 81 0 122 -132 200 -247 146
-20 -10 -366 -351 -833 -823 l-800 -806 -305 305 c-168 168 -304 308 -302 313
1 4 172 180 379 391 208 211 382 396 388 411 48 125 -72 259 -202 225 -38 -10
-91 -59 -431 -398 l-388 -387 -398 400 c-219 220 -411 405 -427 412 -44 18
-85 15 -134 -9z"/>
</g>
</svg>
