<svg width="128" height="128" viewBox="0 0 128 128" fill="none" xmlns="http://www.w3.org/2000/svg">
<rect width="128" height="128" rx="24" fill="#231F20"/>
<path d="M25.7906 67.4222V67.1979C25.4539 66.8642 25.1867 66.467 25.0042 66.0291C24.8218 65.5912 24.7279 65.1215 24.7279 64.647C24.7279 64.1725 24.8218 63.7027 25.0042 63.2649C25.1867 62.827 25.4539 62.4297 25.7906 62.096L41.3467 46.454L25.7906 30.7838C25.3123 30.5014 24.9049 30.1131 24.5996 29.6485C24.2942 29.184 24.0991 28.6556 24.029 28.1038C23.959 27.552 24.016 26.9915 24.1956 26.4651C24.3753 25.9388 24.6727 25.4607 25.0653 25.0674C25.4579 24.674 25.9351 24.376 26.4604 24.196C26.9857 24.016 27.5452 23.9589 28.0959 24.0291C28.6466 24.0992 29.174 24.2948 29.6377 24.6007C30.1013 24.9066 30.4889 25.3149 30.7708 25.7941L46.2988 41.4081L46.6626 41.0157L61.8269 25.766C62.1594 25.431 62.5545 25.165 62.9897 24.9829C63.4248 24.8009 63.8915 24.7066 64.3631 24.7053C64.8346 24.704 65.3018 24.7958 65.7379 24.9754C66.1741 25.155 66.5706 25.4189 66.905 25.752C67.2393 26.0852 67.5049 26.4811 67.6866 26.917C67.8682 27.353 67.9624 27.8206 67.9637 28.2931C67.965 28.7655 67.8734 29.2336 67.6942 29.6706C67.5149 30.1076 67.2515 30.5049 66.919 30.8399L57.4623 40.3429L51.8666 46.1176L51.5308 46.51L64.289 59.433L97.8632 25.7941C98.1957 25.4591 98.5908 25.193 99.026 25.011C99.4611 24.829 99.9278 24.7346 100.399 24.7333C100.871 24.732 101.338 24.8238 101.774 25.0034C102.21 25.183 102.607 25.4469 102.941 25.7801C103.276 26.1132 103.541 26.5091 103.723 26.9451C103.905 27.3811 103.999 27.8486 104 28.3211C104.001 28.7935 103.91 29.2616 103.73 29.6986C103.551 30.1356 103.288 30.5329 102.955 30.8679L69.3811 64.5068L102.424 97.7532C103.035 98.45 103.358 99.3542 103.327 100.281C103.296 101.209 102.914 102.089 102.257 102.743C101.6 103.398 100.72 103.776 99.794 103.802C98.8684 103.828 97.9677 103.5 97.2756 102.883L64.2331 69.6087L31.1065 102.939C30.774 103.274 30.3789 103.54 29.9438 103.722C29.5086 103.904 29.0419 103.999 28.5704 104C28.0988 104.001 27.6317 103.91 27.1955 103.73C26.7594 103.55 26.3628 103.286 26.0284 102.953C25.6941 102.62 25.4285 102.224 25.2469 101.788C25.0652 101.352 24.971 100.885 24.9697 100.412C24.9684 99.9398 25.06 99.4717 25.2393 99.0347C25.4185 98.5977 25.6819 98.2004 26.0145 97.8654L59.169 64.5068L46.2709 51.5278L30.7428 67.1979C30.1075 67.8303 29.2603 68.2034 28.3658 68.2448C27.4713 68.2863 26.5933 67.9931 25.9025 67.4222H25.7906Z" fill="#FDFDF7"/>
</svg>
