<svg width="100%" height="100%" viewBox="0 0 48 48" fill="none" xmlns="http://www.w3.org/2000/svg">
<path d="M46.8797 23.1685C46.9431 35.3805 36.7802 45.3849 24.1151 45.4506C11.45 45.5164 1.1837 35.6181 1.12028 23.4061C1.05686 11.1942 11.2199 1.18976 23.8849 1.12399C36.55 1.05822 46.8163 10.9565 46.8797 23.1685Z" stroke="currentColor" stroke-width="2"/>
<path d="M18.4303 15.6104L18.5428 15.489L23.4762 10.5278L23.4765 10.5275C23.5386 10.465 23.6123 10.4154 23.6934 10.3815C23.7744 10.3476 23.8614 10.33 23.9492 10.3298C24.037 10.3295 24.124 10.3466 24.2053 10.3801C24.2865 10.4135 24.3605 10.4627 24.4229 10.5249C24.4853 10.5871 24.5349 10.661 24.5688 10.7425C24.6028 10.824 24.6204 10.9114 24.6207 10.9998C24.6209 11.0882 24.6038 11.1757 24.5703 11.2574C24.5368 11.339 24.4876 11.4132 24.4256 11.4757C24.4256 11.4757 24.4255 11.4758 24.4255 11.4758L21.3455 14.5708L21.3455 14.5708L21.3409 14.5756L19.5181 16.4566L19.5073 16.4678L19.4973 16.4795L19.3879 16.6074L19.0891 16.9566L19.412 17.2837L23.5679 21.4932L23.9217 21.8516L24.2776 21.4951L35.214 10.5376L35.2149 10.5367C35.277 10.4741 35.3507 10.4245 35.4318 10.3906C35.5128 10.3567 35.5998 10.3391 35.6876 10.3389C35.7754 10.3387 35.8624 10.3557 35.9437 10.3892C36.0249 10.4227 36.0989 10.4719 36.1613 10.534C36.2237 10.5962 36.2733 10.6702 36.3073 10.7516C36.3412 10.8331 36.3588 10.9206 36.3591 11.0089C36.3593 11.0973 36.3422 11.1848 36.3087 11.2665C36.2752 11.3481 36.2261 11.4222 36.1641 11.4847C36.1641 11.4848 36.164 11.4849 36.1639 11.4849L25.2285 22.4414L24.8767 22.7939L25.2277 23.1471L35.9785 33.9643C36.0881 34.0942 36.1459 34.2605 36.1402 34.4311C36.1344 34.6062 36.0621 34.7723 35.9384 34.8956C35.8147 35.0188 35.6489 35.09 35.475 35.0949C35.3054 35.0997 35.1402 35.0411 35.0112 34.9306L24.2602 24.1042L23.9056 23.7471L23.5508 24.1041L12.7602 34.9611L12.76 34.9613C12.6979 35.0239 12.6242 35.0735 12.5432 35.1074L12.7361 35.5687L12.5432 35.1074C12.4621 35.1413 12.3752 35.1589 12.2874 35.1591C12.1995 35.1593 12.1125 35.1423 12.0313 35.1088C11.95 35.0753 11.876 35.0261 11.8136 34.964C11.7512 34.9018 11.7016 34.8278 11.6677 34.7463C11.6337 34.6649 11.6161 34.5774 11.6159 34.489C11.6156 34.4007 11.6328 34.3132 11.6663 34.2315C11.6998 34.1498 11.749 34.0756 11.811 34.0131L22.6105 23.1471L22.9608 22.7947L22.6105 22.4422L18.4091 18.2144L18.054 17.8571L17.6993 18.215L12.6437 23.3169C12.6433 23.3172 12.6429 23.3176 12.6426 23.3179C12.5237 23.4357 12.3656 23.5051 12.199 23.5128C12.0802 23.5183 11.9629 23.4923 11.8586 23.4384L11.7352 23.3161C11.6725 23.254 11.6227 23.1799 11.5887 23.0982C11.5546 23.0166 11.5371 22.9289 11.5371 22.8403C11.5371 22.7517 11.5546 22.6641 11.5887 22.5824C11.6227 22.5007 11.6725 22.4266 11.7352 22.3645L11.7352 22.3645L11.7378 22.3619L16.805 17.2667L17.1553 16.9145L16.8053 16.5619L11.7381 11.4575L11.6928 11.4119L11.6375 11.3792C11.5475 11.3261 11.4707 11.2529 11.4131 11.1653C11.3555 11.0777 11.3187 10.978 11.3055 10.8738C11.2923 10.7697 11.303 10.6638 11.3369 10.5645C11.3708 10.4652 11.4269 10.375 11.5009 10.3009C11.5749 10.2268 11.6647 10.1707 11.7635 10.1369C11.8623 10.103 11.9675 10.0923 12.071 10.1055C12.1745 10.1187 12.2737 10.1554 12.361 10.213C12.4483 10.2706 12.5214 10.3475 12.5745 10.4379L12.6065 10.4923L12.651 10.537L17.7091 15.6231L18.0763 15.9924L18.4303 15.6104Z" fill="currentColor" stroke="currentColor"/>
</svg>
